<svg width="3392" height="1052" xmlns="http://www.w3.org/2000/svg" xmlns:xlink="http://www.w3.org/1999/xlink" overflow="hidden"><defs><clipPath id="clip0"><rect x="639" y="857" width="3392" height="1052"/></clipPath></defs><g clip-path="url(#clip0)" transform="translate(-639 -857)"><text fill="#0276BD" font-family="Segoe UI,Segoe UI_MSFontService,sans-serif" font-weight="400" font-size="458" transform="matrix(1 0 0 1 1657.09 1530)">PowerShell</text><path d="M697.679 1601.47C673.719 1600.89 664.095 1599.27 654.408 1594.21 648.9 1591.33 644.173 1586.23 641.793 1580.61L639.998 1576.35 639.998 1562.7C639.998 1550.2 640.144 1548.31 641.742 1540.35 643.715 1530.54 660.579 1456.57 689.929 1329 734.735 1134.26 750.882 1063.42 772.119 968.404 781.08 928.3 783.625 918.364 787.291 909.128 798.229 881.577 815.67 866.389 843.196 860.462 855.634 857.784 858.006 857.729 938.952 858.27 981.252 858.551 1145.09 858.792 1303.03 858.799 1572.55 858.815 1590.64 858.886 1597.33 859.897 1610.42 861.879 1617.84 864.64 1623.51 869.643 1627.24 872.937 1630.44 879.243 1631.46 885.296 1632.56 891.832 1631.91 905.89 1629.99 916.856 1626.3 937.982 1501.8 1501.64 1494.95 1528.25 1483.69 1571.97 1469.64 1589.62 1440.1 1597.15 1431.39 1599.37 1420.84 1600.71 1405.99 1601.49 1392.66 1602.18 726.362 1602.16 697.679 1601.47ZM898.585 1518.64C903.135 1517.42 911.449 1513.56 916.871 1510.14 919.124 1508.72 941.758 1492.16 967.173 1473.33 1064.89 1400.93 1153.37 1335.77 1221.73 1285.87 1262.78 1255.9 1269.75 1250.19 1275.07 1242.18 1282.13 1231.54 1282.42 1220.33 1275.94 1208.59 1273 1203.26 1268.25 1197.25 1259.24 1187.44 1254.67 1182.47 1241.71 1168.36 1230.44 1156.1 1197.64 1120.39 1164.64 1083.93 1107.44 1020.2 1078.03 987.43 1051.53 958.433 1048.55 955.764 1037.31 945.671 1025.6 940.442 1014.23 940.442 1000.33 940.442 982.755 950.022 970.196 964.447 965.918 969.36 961.404 977.882 960.327 983.075 959.23 988.362 959.889 996.868 961.83 1002.43 965.536 1013.05 970.701 1020.01 992.332 1043.57 1020.51 1074.24 1077.68 1138.24 1147.17 1216.88L1157.52 1228.58 1155.85 1229.95C1144.76 1239.04 1008.15 1340.23 898.944 1420.25 884.79 1430.62 871.303 1440.61 868.983 1442.46 844.656 1461.75 840.363 1477.69 853.981 1498.17 861.967 1510.19 871.978 1517.69 882.821 1519.79 885.564 1520.32 894.801 1519.65 898.585 1518.64ZM1295.28 1498.24C1312.69 1492.4 1322.78 1476.07 1321.78 1455.35 1321.4 1447.58 1319.99 1442.25 1316.49 1435.45 1313.62 1429.88 1306.31 1422.45 1301.37 1420.08 1293.52 1416.31 1300.19 1416.52 1187.88 1416.52 1114.31 1416.52 1084.14 1416.72 1081.79 1417.22 1064.81 1420.81 1053.26 1437.42 1053.29 1458.21 1053.3 1466.37 1054.48 1471.49 1058.04 1478.9 1063.56 1490.36 1072.6 1497.29 1084.32 1499.04 1086.24 1499.32 1133.72 1499.52 1189.84 1499.47 1287.16 1499.39 1292.02 1499.33 1295.28 1498.24Z" fill="#0277BD" fill-rule="evenodd"/></g></svg>