<svg width="3272" height="962" xmlns="http://www.w3.org/2000/svg" xmlns:xlink="http://www.w3.org/1999/xlink" overflow="hidden"><defs><clipPath id="clip0"><rect x="61" y="-53" width="3272" height="962"/></clipPath></defs><g clip-path="url(#clip0)" transform="translate(-61 53)"><text fill="#0276BD" font-family="Segoe UI,Segoe UI_MSFontService,sans-serif" font-weight="400" font-size="458" transform="matrix(1 0 0 1 958.713 530)">PowerShell</text><path d="M112.585 658.535C91.5722 658.028 83.1317 656.617 74.6358 652.194 69.8049 649.679 65.6592 645.225 63.5724 640.309L61.9977 636.594 61.9977 624.664C61.9977 613.741 62.1258 612.092 63.5275 605.141 65.2576 596.567 80.0483 531.946 105.789 420.495 145.084 250.357 159.245 188.465 177.87 105.455 185.729 70.4177 187.961 61.7375 191.176 53.6682 200.769 29.5978 216.065 16.3291 240.206 11.1506 251.114 8.81159 253.194 8.76332 324.186 9.23592 361.283 9.48106 504.969 9.69149 643.488 9.69843 879.862 9.712 895.726 9.77415 901.595 10.6575 913.078 12.3893 919.584 14.8009 924.553 19.172 927.823 22.0493 930.633 27.5587 931.53 32.8476 932.495 38.5571 931.921 50.8392 930.239 60.4197 927.003 78.8769 817.81 571.32 811.802 594.566 801.929 632.764 789.606 648.186 763.703 654.764 756.062 656.703 746.808 657.877 733.786 658.553 722.093 659.16 137.74 659.143 112.585 658.535ZM288.783 586.169C292.774 585.11 300.065 581.736 304.82 578.748 306.796 577.51 326.646 563.034 348.936 546.584 434.632 483.336 512.236 426.405 572.185 382.811 608.186 356.63 614.301 351.638 618.962 344.644 625.16 335.343 625.416 325.556 619.727 315.292 617.149 310.642 612.986 305.391 605.081 296.818 601.074 292.474 589.709 280.151 579.826 269.435 551.061 238.241 522.12 206.387 471.954 150.708 446.155 122.077 422.914 96.7442 420.308 94.4121 410.445 85.5941 400.174 81.0261 390.204 81.0261 378.012 81.0261 362.602 89.3957 351.587 101.998 347.835 106.29 343.876 113.735 342.932 118.272 341.97 122.892 342.548 130.323 344.25 135.184 347.5 144.457 352.03 150.543 371.001 171.122 395.71 197.921 445.851 253.831 506.799 322.537L515.87 332.763 514.406 333.96C504.682 341.898 384.871 430.303 289.098 500.21 276.685 509.273 264.856 518.005 262.821 519.616 241.487 536.472 237.722 550.396 249.664 568.291 256.669 578.786 265.448 585.341 274.958 587.176 277.363 587.642 285.464 587.052 288.783 586.169ZM636.691 568.347C651.959 563.251 660.808 548.982 659.933 530.877 659.6 524.087 658.358 519.43 655.292 513.496 652.772 508.624 646.367 502.132 642.034 500.065 635.144 496.774 640.996 496.956 542.496 496.956 477.976 496.956 451.52 497.129 449.457 497.564 434.563 500.703 424.437 515.214 424.461 533.374 424.474 540.502 425.502 544.98 428.631 551.456 433.465 561.464 441.397 567.522 451.672 569.047 453.357 569.295 495.002 569.468 544.216 569.423 629.566 569.35 633.836 569.299 636.691 568.347Z" fill="#0277BD" fill-rule="evenodd"/></g></svg>