<svg width="4370" height="1494" xmlns="http://www.w3.org/2000/svg" xmlns:xlink="http://www.w3.org/1999/xlink" overflow="hidden"><defs><clipPath id="clip0"><rect x="15" y="503" width="4370" height="1494"/></clipPath></defs><g clip-path="url(#clip0)" transform="translate(-15 -503)"><path d="M1710 853.25 2111.01 853.25 2111.01 936.768 1963.51 936.768 1963.51 1355.82 1857.37 1355.82 1857.37 936.739 1710 936.739ZM2319.53 936.739 2450.67 936.739C2497.07 937.468 2524.52 956.13 2524.52 1000.31 2524.52 1044.68 2497.07 1068.28 2450.67 1068.89L2319.53 1068.89ZM2319.53 1156.32 2431.74 1156.32C2431.74 1156.32 2501.28 1311.13 2510.19 1355.82L2640.94 1355.82 2540.49 1149.17C2611.29 1130.62 2629.62 1044.96 2629.62 979.882 2629.62 877.895 2517.52 850.08 2423.53 853.235L2213.29 853.235 2213.29 1355.8 2319.53 1355.8 2319.53 1156.34ZM2772.64 853.25 3127.8 853.25 3127.8 936.768 2878.88 936.768 2878.88 1054.92 3107.89 1054.92 3107.89 1138.41 2878.88 1138.41 2878.88 1272.33 3135.24 1272.33 3135.24 1355.83 2772.64 1355.83ZM3562.31 1355.82 3380.46 1021.64 3379 1023.02 3379 1355.82 3279.69 1355.82 3279.69 853.25 3411.38 853.25 3592.18 1181.65 3593.55 1180.31 3593.55 853.25 3692.9 853.25 3692.9 1355.82ZM3953.44 940.638 4008.35 940.638C4134.46 939.298 4153 1024.48 4153 1104.49 4153 1184.6 4134.45 1273.77 4008.35 1272.33L3953.42 1272.33ZM3847.18 1355.83 4015.79 1355.83C4170.13 1357.22 4266.13 1279.32 4266.13 1104.47 4266.13 929.819 4170.13 851.866 4015.79 853.265L3847.18 853.265ZM2041.83 1768.84 1990.47 1768.84 1990.47 1549.14 1936.36 1768.84 1883.02 1768.84 1828.91 1549.14 1828.09 1768.84 1776.68 1768.84 1776.68 1489.9 1859.6 1489.9 1909.07 1679.95 1958.63 1489.9 2041.83 1489.9ZM2460.58 1768.82 2405.21 1768.82 2405.21 1489.9 2460.58 1489.9ZM3552.81 1588.84C3549.36 1596.39 3543.46 1601.55 3535.08 1604.44 3530.65 1606.04 3525.4 1606.88 3519.27 1607.16 3512.94 1607.71 3503.63 1607.87 3491.71 1607.87L3444.11 1607.87 3444.11 1537.1 3487.5 1537.1C3507.41 1537.1 3520.2 1537.32 3525.84 1537.81 3531.55 1538.28 3537.05 1540.15 3541.87 1543.26 3547.12 1546.41 3550.67 1550.25 3552.81 1554.97 3555.01 1559.91 3556.1 1565.52 3556.1 1571.68 3556.1 1578.17 3555 1583.89 3552.81 1588.84M3557.68 1652.85 3574.81 1647.68C3588.15 1642.25 3598.56 1632.21 3605.72 1620.03 3613.27 1607.55 3615.07 1586 3615.07 1570.46 3615.07 1555.64 3609.71 1539.66 3602.65 1526.93 3594.4 1512.39 3583 1502.39 3568.46 1496.9 3562.21 1494.71 3555.79 1493.13 3549.25 1492.18 3538.69 1490.68 3524.1 1489.9 3505.43 1489.9L3388.75 1489.9 3388.75 1768.84 3444.11 1768.84 3444.11 1658.91 3496.9 1658.29 3555.49 1768.84 3621.97 1768.84ZM4102.72 1707.26C4089.69 1719.19 4073.45 1725.19 4053.97 1725.19 4038.43 1725.19 4025.04 1721.41 4013.76 1713.86 4004.7 1707.83 3997.16 1699.71 3991.77 1690.16 3987.65 1682.92 3984.46 1675.17 3982.31 1667.11 3979.46 1656.55 3978.04 1643.96 3978.04 1629.41 3978.04 1603.37 3982.97 1582.22 3992.59 1565.83 4005.45 1544.4 4025.9 1533.58 4053.97 1533.58 4083.68 1533.58 4104.8 1545.46 4117.38 1569.39 4125.53 1584.94 4129.7 1604.66 4129.7 1628.62 4129.7 1664.44 4120.72 1690.71 4102.72 1707.26M4153.98 1526.92C4130.3 1499.04 4096.86 1485.22 4053.71 1485.22 4011.26 1485.22 3978.42 1498.27 3955.39 1524.21 3932.36 1550.18 3920.82 1585.77 3920.82 1630.91 3920.82 1669.38 3930.18 1701.08 3948.93 1726.35 3972.07 1757.78 4007.3 1773.48 4054.41 1773.48 4099.55 1773.48 4133.69 1758.66 4156.93 1729.13 4176.9 1703.64 4186.98 1670.5 4186.98 1629.8 4186.98 1587.16 4175.92 1552.86 4153.98 1526.92M2998.23 1581.46C2993.74 1564.85 2984.94 1533.6 2937.84 1533.6 2910.42 1533.6 2870.21 1552.14 2870.21 1630.54 2870.21 1680.4 2889.52 1725.09 2937.84 1725.09 2969.4 1725.09 2991.4 1706.93 2998.23 1673L3055.24 1673C3043.91 1733.2 3005.12 1775 2936.74 1775 2864.15 1775 2812.11 1725.53 2812.11 1629.81 2812.11 1532.82 2867.15 1483.68 2937.45 1483.68 3019.13 1483.68 3052.28 1540.53 3055.24 1581.46ZM4287.81 1387.59 4258.21 1387.59 4258.21 1467.49 4246.4 1467.49 4246.4 1387.59 4217.02 1387.59 4217.02 1376.82 4287.81 1376.82ZM4385 1467.49 4373.78 1467.49 4373.78 1391.59 4347.8 1467.49 4337.18 1467.49 4311.64 1390.33 4311.31 1467.49 4299.93 1467.49 4299.93 1376.83 4317.77 1376.83 4338.82 1441.02 4341.17 1448.5 4342.77 1454.46 4347.9 1439.9 4369.31 1376.83 4385 1376.83Z" fill="#F2F2F2" fill-rule="evenodd"/><path d="M149.175 1392.6 150.157 1390.07 153.061 1382.06 155.907 1374.85 157.154 1371.51C171.853 1335.07 189.233 1299.79 209.148 1265.99 211.876 1260.04 214.722 1254.24 217.567 1248.34L129.359 1248.57 150.759 1200.6C223.654 1180.45 345.067 1139.26 460.966 1025.24L464.398 1025.02 525.413 1025.02 446.504 1196.55 573.227 1196.16 549.98 1247.23 423.477 1247.67C423.477 1247.67 364.105 1368.02 343.967 1454.11 328.376 1550.2 343.688 1621.92 428.566 1648.79 480.986 1665.27 546.372 1661.49 616.847 1641.24 780.839 1589.45 956.153 1475.04 1084.42 1323.66 1295.58 1074.82 1299.68 820.195 1093.77 755.188 961.624 713.556 775.309 759.844 602.898 864.103 817.873 723.435 1054.26 657.387 1217.39 708.898 1247.97 718.555 1274.44 731.872 1297 748.298 1162.23 597.602 967.652 503 751.285 503 344.73 503 15.0009 837.455 15.0009 1249.94 14.807 1396.5 57.2959 1539.85 137.133 1662 107.96 1589 112.067 1495.35 149.16 1392.61" fill="#D71920" fill-rule="evenodd"/><path d="M1375 854C1424.23 989.701 1362.64 1192.21 1192.66 1392.67 937.462 1693.81 534.332 1875.91 292.386 1799.47 262.348 1789.98 236.268 1776.95 214 1760.8 348.284 1906.21 539.155 1997 750.975 1997 1157.49 1997 1487 1662.67 1487 1250.21 1487 1104.58 1445.82 968.83 1375 854" fill="#D71920" fill-rule="evenodd"/></g></svg>