<svg width="4401" height="632" xmlns="http://www.w3.org/2000/svg" xmlns:xlink="http://www.w3.org/1999/xlink" overflow="hidden"><defs><clipPath id="clip0"><rect x="0" y="922" width="4401" height="632"/></clipPath></defs><g clip-path="url(#clip0)" transform="matrix(1 0 0 1 0 -922)"><path d="M261.891 1225.61 261.891 973.643 0 1010.8 0 1225.61ZM286.632 1225.61 631 1225.61 631 922 286.632 971.569ZM261.891 1250.39 0 1250.39 0 1467.26 261.891 1502.36ZM286.632 1250.39 286.632 1506.5 631 1554 631 1250.39Z" fill="#0277BD" fill-rule="evenodd"/><path d="M3235.43 1333.53C3235.43 1364.55 3225.1 1391.43 3202.42 1407.97 3179.71 1426.58 3148.78 1434.85 3109.58 1434.85 3095.14 1434.85 3078.64 1432.79 3062.13 1428.65 3043.57 1424.52 3031.19 1418.32 3025 1414.18L3025 1362.48C3035.31 1372.82 3049.76 1381.08 3068.33 1387.29 3086.88 1393.5 3101.33 1397.62 3117.84 1397.62 3167.34 1397.62 3190.03 1379.01 3190.03 1339.72 3190.03 1323.17 3183.84 1310.78 3173.54 1298.35 3163.22 1285.96 3142.59 1271.47 3109.59 1252.87 3078.64 1234.26 3055.95 1217.71 3043.57 1203.23 3031.19 1186.68 3025 1168.07 3025 1145.33 3025 1116.38 3035.31 1091.56 3058.01 1072.95 3080.7 1054.34 3109.59 1044 3144.65 1044 3177.66 1044 3202.42 1048.14 3218.91 1058.48L3218.91 1108.11C3198.29 1091.57 3173.54 1085.36 3142.59 1085.36 3121.96 1085.36 3105.45 1091.57 3091.01 1101.91 3078.64 1112.25 3070.38 1126.72 3070.38 1143.28 3070.38 1155.68 3072.45 1166.02 3076.58 1174.3 3080.7 1182.56 3086.88 1188.77 3097.19 1197.04 3107.51 1205.31 3121.95 1213.58 3144.63 1225.99 3177.65 1244.6 3202.4 1263.21 3214.77 1279.76 3229.22 1292.17 3235.43 1312.85 3235.43 1333.53ZM3505.67 1304.58 3313.81 1304.58C3313.81 1335.6 3322.06 1358.35 3338.56 1374.89 3353 1391.43 3375.7 1399.7 3402.52 1399.7 3433.47 1399.7 3460.3 1389.37 3487.09 1370.75L3487.09 1412.12C3464.39 1428.66 3431.4 1439 3392.2 1439 3353 1439 3324.11 1426.59 3301.42 1401.78 3280.8 1376.96 3268.43 1341.81 3268.43 1298.37 3268.43 1271.49 3274.6 1246.67 3284.93 1225.99 3295.24 1203.25 3309.69 1186.7 3330.31 1174.3 3348.88 1161.89 3369.5 1155.69 3394.28 1155.69 3429.35 1155.69 3456.14 1168.09 3476.76 1190.84 3497.42 1213.59 3505.67 1246.67 3505.67 1285.97L3505.67 1304.58 3505.67 1304.58ZM3462.34 1267.35C3462.34 1242.53 3456.17 1221.86 3443.77 1209.45 3431.4 1194.97 3414.9 1188.77 3394.28 1188.77 3373.62 1188.77 3357.12 1197.05 3342.69 1211.52 3328.24 1226 3320 1244.61 3315.86 1269.42L3462.34 1269.42 3462.34 1267.35ZM3695.45 1201.18C3687.2 1194.97 3676.87 1192.92 3662.45 1192.92 3643.88 1192.92 3627.35 1201.18 3615.01 1219.8 3602.6 1238.41 3596.43 1261.16 3596.43 1290.1L3596.43 1428.66 3553.11 1428.66 3553.11 1157.75 3596.43 1157.75 3596.43 1213.59 3598.48 1213.59C3604.68 1194.97 3612.93 1180.5 3625.3 1170.16 3637.71 1159.82 3652.13 1153.62 3668.62 1153.62 3678.95 1153.62 3689.25 1155.68 3695.45 1157.75L3695.45 1201.18ZM3967.75 1157.75 3860.49 1428.66 3817.16 1428.66 3714.02 1157.75 3761.47 1157.75 3829.54 1354.21C3833.66 1364.54 3835.74 1376.96 3837.79 1391.43L3839.83 1391.43C3841.91 1379.02 3843.96 1366.62 3848.11 1354.21L3920.31 1155.69 3967.75 1155.69 3967.75 1157.75 3967.75 1157.75ZM4211.18 1304.58 4021.4 1304.58C4021.4 1335.6 4029.65 1358.35 4046.15 1374.89 4060.6 1391.43 4083.26 1399.7 4110.09 1399.7 4141.04 1399.7 4167.86 1389.37 4194.69 1370.75L4194.69 1412.12C4172.02 1428.66 4138.99 1439 4099.79 1439 4060.6 1439 4031.69 1426.59 4009.03 1401.78 3988.41 1376.96 3976 1341.81 3976 1298.37 3976 1271.49 3982.2 1246.67 3992.53 1225.99 4002.82 1203.25 4017.28 1186.7 4037.93 1174.3 4056.47 1161.89 4077.09 1155.69 4101.87 1155.69 4136.91 1155.69 4163.74 1168.09 4184.36 1190.84 4205.01 1213.59 4213.26 1246.67 4213.26 1285.97L4213.26 1304.58 4211.18 1304.58 4211.18 1304.58 4211.18 1304.58ZM4167.9 1267.35C4167.9 1242.53 4161.69 1221.86 4149.32 1209.45 4136.91 1194.97 4120.45 1188.77 4099.79 1188.77 4079.14 1188.77 4062.68 1197.05 4048.22 1211.52 4033.77 1226 4025.52 1244.61 4021.4 1269.42L4167.9 1269.42 4167.9 1267.35ZM4400.97 1201.18C4392.72 1194.97 4382.42 1192.92 4367.97 1192.92 4349.4 1192.92 4332.9 1201.18 4320.53 1219.8 4308.15 1238.41 4301.95 1261.16 4301.95 1290.1L4301.95 1428.66 4258.63 1428.66 4258.63 1157.75 4301.95 1157.75 4301.95 1213.59 4304.03 1213.59C4310.2 1194.97 4318.48 1180.5 4330.85 1170.16 4343.23 1159.82 4357.68 1153.62 4374.18 1153.62 4384.47 1153.62 4394.8 1155.68 4401 1157.75L4401 1201.18 4400.97 1201.18Z" fill="#0277BD" fill-rule="evenodd"/><path d="M1312.04 1049.73 1204.75 1427.74 1153.18 1427.74 1074.77 1150.94C1072.72 1140.61 1070.64 1128.22 1068.59 1111.7L1066.52 1111.7 1060.34 1148.88 981.928 1425.68 930.349 1425.68 821 1049.73 868.455 1049.73 948.917 1340.98C953.039 1353.38 955.108 1365.78 955.108 1378.16L957.167 1378.16C957.167 1367.84 961.288 1355.44 965.423 1340.98L1050.02 1049.72 1093.34 1049.72 1173.8 1343.05C1175.87 1353.38 1177.93 1365.78 1180 1378.16 1180 1369.9 1184.12 1357.52 1186.19 1340.98L1264.59 1049.72 1312.04 1049.73ZM1398.7 1068.32C1398.7 1076.58 1396.63 1082.77 1390.45 1088.98 1384.26 1095.17 1378.07 1097.24 1369.81 1097.24 1361.57 1097.24 1355.37 1095.17 1349.18 1088.98 1342.99 1082.77 1340.93 1076.58 1340.93 1068.32 1340.93 1060.05 1342.99 1053.85 1349.18 1047.66 1355.37 1041.46 1361.56 1039.4 1369.81 1039.4 1378.07 1039.4 1384.26 1041.46 1390.45 1047.66 1394.57 1053.85 1398.7 1060.05 1398.7 1068.32ZM1390.45 1427.75 1347.12 1427.75 1347.12 1157.14 1390.45 1157.14 1390.45 1427.75ZM1679.29 1427.75 1635.97 1427.75 1635.97 1272.81C1635.97 1214.98 1615.33 1186.06 1574.07 1186.06 1553.44 1186.06 1534.87 1194.32 1520.43 1210.85 1505.99 1227.37 1499.8 1248.02 1499.8 1272.81L1499.8 1427.75 1456.47 1427.75 1456.47 1157.14 1499.8 1157.14 1499.8 1202.59 1501.86 1202.59C1522.49 1167.47 1551.39 1150.95 1590.58 1150.95 1619.46 1150.95 1642.15 1161.28 1658.67 1179.86 1675.17 1198.45 1681.36 1227.37 1681.36 1262.49L1681.36 1427.75 1679.29 1427.75ZM1980.52 1427.75 1937.19 1427.75 1937.19 1382.3 1935.13 1382.3C1914.5 1417.42 1883.54 1433.94 1842.29 1433.94 1807.22 1433.94 1780.39 1421.55 1759.76 1396.76 1739.13 1371.98 1728.82 1338.92 1728.82 1297.6 1728.82 1252.17 1739.13 1217.05 1761.82 1190.19 1784.52 1163.34 1813.41 1148.88 1852.6 1148.88 1889.74 1148.88 1916.56 1163.34 1933.06 1192.26L1935.13 1192.26 1935.13 1027 1978.46 1027 1978.46 1427.74 1980.52 1427.75ZM1937.19 1305.87 1937.19 1266.63C1937.19 1243.89 1928.93 1225.31 1914.49 1210.85 1900.05 1196.39 1881.48 1188.13 1860.85 1188.13 1834.03 1188.13 1813.4 1198.45 1798.95 1217.05 1784.51 1235.63 1776.25 1262.49 1776.25 1297.6 1776.25 1328.59 1782.45 1353.38 1796.89 1371.97 1811.33 1390.56 1829.9 1398.82 1854.66 1398.82 1879.41 1398.82 1897.98 1390.56 1912.44 1371.97 1928.93 1355.44 1937.19 1332.72 1937.19 1305.87ZM2300.31 1291.41C2300.31 1334.79 2287.94 1369.9 2263.18 1394.69 2238.42 1421.55 2205.4 1433.94 2164.14 1433.94 2124.94 1433.94 2091.93 1421.55 2069.24 1396.76 2044.47 1371.98 2034.16 1336.86 2034.16 1295.54 2034.16 1250.11 2046.54 1214.99 2071.3 1190.2 2096.06 1163.34 2129.07 1150.95 2172.4 1150.95 2211.61 1150.95 2244.61 1163.34 2267.3 1188.13 2287.94 1212.92 2300.31 1248.02 2300.31 1291.41ZM2254.92 1293.47C2254.92 1260.43 2246.67 1233.57 2232.23 1214.98 2217.78 1196.39 2195.08 1188.12 2168.26 1188.12 2141.44 1188.12 2118.75 1198.45 2102.24 1214.98 2085.73 1233.57 2077.48 1260.42 2077.48 1293.47 2077.48 1326.52 2085.73 1351.31 2102.24 1369.91 2118.75 1388.5 2141.44 1396.76 2168.26 1396.76 2197.15 1396.76 2217.78 1388.5 2232.23 1369.91 2248.72 1353.38 2254.92 1326.52 2254.92 1293.47ZM2694.38 1157.14 2613.92 1427.75 2568.52 1427.75 2512.82 1233.57C2510.76 1227.37 2508.7 1219.11 2508.7 1208.79L2506.64 1208.79C2506.64 1214.98 2504.58 1223.25 2500.45 1233.57L2440.61 1427.75 2397.29 1427.75 2314.76 1157.14 2360.14 1157.14 2415.85 1361.65C2417.91 1367.84 2417.91 1376.11 2419.98 1386.43L2422.03 1386.43C2422.03 1380.23 2424.1 1371.97 2426.16 1361.65L2488.06 1159.21 2527.26 1159.21 2582.97 1363.71C2585.02 1369.91 2585.02 1378.17 2587.09 1388.5L2589.16 1388.5C2589.16 1380.23 2591.21 1371.97 2593.28 1363.71L2648.98 1159.21 2694.36 1159.21 2694.36 1157.14 2694.38 1157.14ZM2878 1355.44C2878 1378.16 2869.74 1398.82 2851.19 1413.28 2832.6 1427.74 2809.91 1436 2778.97 1436 2754.21 1436 2731.52 1429.81 2712.94 1419.48L2712.94 1371.97C2733.57 1388.5 2758.34 1398.83 2783.1 1398.83 2818.16 1398.83 2834.68 1386.43 2834.68 1361.65 2834.68 1351.31 2830.56 1343.06 2824.37 1336.86 2818.16 1330.66 2801.67 1322.4 2778.97 1310 2754.21 1299.67 2737.71 1289.35 2727.39 1276.95 2717.08 1264.56 2712.94 1250.1 2712.94 1229.45 2712.94 1206.72 2721.2 1188.13 2739.77 1173.67 2758.34 1159.21 2781.03 1150.95 2807.86 1150.95 2828.49 1150.95 2849.13 1155.08 2865.63 1163.34L2865.63 1206.72C2847.06 1194.32 2828.5 1188.12 2803.73 1188.12 2789.28 1188.12 2778.97 1192.26 2768.66 1198.45 2760.41 1204.65 2756.28 1214.98 2756.28 1225.3 2756.28 1237.7 2760.41 1245.96 2766.59 1252.17 2772.78 1258.36 2787.21 1266.63 2807.87 1274.89 2832.61 1285.21 2851.19 1297.61 2861.51 1310 2873.87 1322.4 2878 1336.85 2878 1355.44Z" fill="#0277BD" fill-rule="evenodd"/></g></svg>